<svg width="1260" height="872" viewBox="0 0 1260 872" fill="none" xmlns="http://www.w3.org/2000/svg">
<g clip-path="url(#clip0_1_48)">
<rect x="1025" y="694" width="234" height="177" rx="15" stroke="black" stroke-width="2"/>
<rect x="1025" y="248" width="234" height="177" rx="15" stroke="black" stroke-width="2"/>
<rect x="1" y="1" width="297" height="225" rx="15" stroke="#F9B126" stroke-width="2"/>
<rect x="1" y="447" width="297" height="225" rx="15" stroke="black" stroke-width="2"/>
<rect x="1" y="248" width="234" height="177" rx="15" stroke="black" stroke-width="2"/>
<rect x="257" y="248" width="234" height="177" rx="15" stroke="black" stroke-width="2"/>
<rect x="513" y="248" width="234" height="177" rx="15" stroke="black" stroke-width="2"/>
<rect x="769" y="248" width="234" height="177" rx="15" stroke="black" stroke-width="2"/>
<rect x="1" y="694" width="234" height="177" rx="15" stroke="black" stroke-width="2"/>
<rect x="257" y="694" width="234" height="177" rx="15" stroke="black" stroke-width="2"/>
<rect x="513" y="694" width="234" height="177" rx="15" stroke="black" stroke-width="2"/>
<rect x="769" y="694" width="234" height="177" rx="15" stroke="black" stroke-width="2"/>
<rect x="321" y="1" width="297" height="225" rx="15" stroke="#A926F9" stroke-width="2"/>
<rect x="641" y="1" width="297" height="225" rx="15" stroke="#9CF926" stroke-width="2"/>
<rect x="961" y="1" width="297" height="225" rx="15" stroke="black" stroke-width="2"/>
<rect x="321" y="447" width="297" height="225" rx="15" stroke="black" stroke-width="2"/>
<rect x="641" y="447" width="297" height="225" rx="15" stroke="black" stroke-width="2"/>
<rect x="961" y="447" width="297" height="225" rx="15" stroke="black" stroke-width="2"/>
<path d="M126.615 77.2727H135.421V129.261C135.421 133.902 134.569 137.843 132.865 141.087C131.16 144.33 128.757 146.792 125.656 148.473C122.554 150.154 118.897 150.994 114.683 150.994C110.705 150.994 107.166 150.272 104.065 148.828C100.963 147.36 98.525 145.277 96.7495 142.578C94.9739 139.879 94.0861 136.671 94.0861 132.955H102.751C102.751 135.014 103.26 136.813 104.278 138.352C105.32 139.867 106.74 141.051 108.539 141.903C110.338 142.756 112.386 143.182 114.683 143.182C117.216 143.182 119.37 142.649 121.146 141.584C122.921 140.518 124.271 138.956 125.194 136.896C126.141 134.813 126.615 132.268 126.615 129.261V77.2727ZM192.843 95.4545C192.417 91.8561 190.689 89.0625 187.659 87.0739C184.628 85.0852 180.911 84.0909 176.508 84.0909C173.288 84.0909 170.471 84.6117 168.056 85.6534C165.665 86.6951 163.795 88.1274 162.445 89.9503C161.12 91.7732 160.457 93.8447 160.457 96.1648C160.457 98.1061 160.919 99.7751 161.842 101.172C162.789 102.545 163.996 103.693 165.464 104.616C166.932 105.516 168.471 106.262 170.08 106.854C171.69 107.422 173.17 107.884 174.519 108.239L181.906 110.227C183.8 110.724 185.907 111.411 188.227 112.287C190.57 113.163 192.808 114.358 194.938 115.874C197.093 117.365 198.868 119.283 200.265 121.626C201.662 123.97 202.36 126.847 202.36 130.256C202.36 134.186 201.33 137.737 199.271 140.909C197.235 144.081 194.252 146.603 190.322 148.473C186.416 150.343 181.669 151.278 176.082 151.278C170.874 151.278 166.364 150.438 162.552 148.757C158.764 147.076 155.781 144.732 153.603 141.726C151.449 138.719 150.23 135.227 149.945 131.25H159.036C159.273 133.996 160.196 136.269 161.806 138.068C163.44 139.844 165.499 141.17 167.985 142.045C170.495 142.898 173.194 143.324 176.082 143.324C179.444 143.324 182.462 142.779 185.137 141.69C187.812 140.578 189.931 139.039 191.494 137.074C193.056 135.085 193.838 132.765 193.838 130.114C193.838 127.699 193.163 125.734 191.813 124.219C190.464 122.704 188.688 121.473 186.487 120.526C184.285 119.579 181.906 118.75 179.349 118.04L170.4 115.483C164.718 113.849 160.22 111.518 156.906 108.487C153.591 105.457 151.934 101.491 151.934 96.5909C151.934 92.5189 153.035 88.9678 155.237 85.9375C157.462 82.8835 160.445 80.5161 164.186 78.8352C167.95 77.1307 172.152 76.2784 176.792 76.2784C181.48 76.2784 185.646 77.1188 189.292 78.7997C192.938 80.4569 195.826 82.7296 197.957 85.6179C200.111 88.5062 201.248 91.785 201.366 95.4545H192.843Z" fill="#F9B126"/>
<path d="M95.6145 300.273H104.421V352.261C104.421 356.902 103.569 360.843 101.865 364.087C100.16 367.33 97.757 369.792 94.6557 371.473C91.5544 373.154 87.8967 373.994 83.6827 373.994C79.7054 373.994 76.1661 373.272 73.0648 371.828C69.9635 370.36 67.525 368.277 65.7495 365.578C63.9739 362.879 63.0861 359.671 63.0861 355.955H71.7509C71.7509 358.014 72.2599 359.813 73.2779 361.352C74.3195 362.867 75.74 364.051 77.5392 364.903C79.3385 365.756 81.3863 366.182 83.6827 366.182C86.2158 366.182 88.3702 365.649 90.1458 364.584C91.9213 363.518 93.2708 361.956 94.1941 359.896C95.141 357.813 95.6145 355.268 95.6145 352.261V300.273ZM161.843 318.455C161.417 314.856 159.689 312.062 156.659 310.074C153.628 308.085 149.911 307.091 145.508 307.091C142.288 307.091 139.471 307.612 137.056 308.653C134.665 309.695 132.795 311.127 131.445 312.95C130.12 314.773 129.457 316.845 129.457 319.165C129.457 321.106 129.919 322.775 130.842 324.172C131.789 325.545 132.996 326.693 134.464 327.616C135.932 328.516 137.471 329.262 139.08 329.854C140.69 330.422 142.17 330.884 143.519 331.239L150.906 333.227C152.8 333.724 154.907 334.411 157.227 335.287C159.57 336.163 161.808 337.358 163.938 338.874C166.093 340.365 167.868 342.283 169.265 344.626C170.662 346.97 171.36 349.847 171.36 353.256C171.36 357.186 170.33 360.737 168.271 363.909C166.235 367.081 163.252 369.603 159.322 371.473C155.416 373.343 150.669 374.278 145.082 374.278C139.874 374.278 135.364 373.438 131.552 371.757C127.764 370.076 124.781 367.732 122.603 364.726C120.449 361.719 119.23 358.227 118.945 354.25H128.036C128.273 356.996 129.196 359.269 130.806 361.068C132.44 362.844 134.499 364.17 136.985 365.045C139.495 365.898 142.194 366.324 145.082 366.324C148.444 366.324 151.462 365.779 154.137 364.69C156.812 363.578 158.931 362.039 160.494 360.074C162.056 358.085 162.838 355.765 162.838 353.114C162.838 350.699 162.163 348.734 160.813 347.219C159.464 345.704 157.688 344.473 155.487 343.526C153.285 342.579 150.906 341.75 148.349 341.04L139.4 338.483C133.718 336.849 129.22 334.518 125.906 331.487C122.591 328.457 120.934 324.491 120.934 319.591C120.934 315.519 122.035 311.968 124.237 308.938C126.462 305.884 129.445 303.516 133.186 301.835C136.95 300.131 141.152 299.278 145.792 299.278C150.48 299.278 154.646 300.119 158.292 301.8C161.938 303.457 164.826 305.73 166.957 308.618C169.111 311.506 170.248 314.785 170.366 318.455H161.843Z" fill="black"/>
<path d="M351.615 300.273H360.421V352.261C360.421 356.902 359.569 360.843 357.865 364.087C356.16 367.33 353.757 369.792 350.656 371.473C347.554 373.154 343.897 373.994 339.683 373.994C335.705 373.994 332.166 373.272 329.065 371.828C325.963 370.36 323.525 368.277 321.749 365.578C319.974 362.879 319.086 359.671 319.086 355.955H327.751C327.751 358.014 328.26 359.813 329.278 361.352C330.32 362.867 331.74 364.051 333.539 364.903C335.338 365.756 337.386 366.182 339.683 366.182C342.216 366.182 344.37 365.649 346.146 364.584C347.921 363.518 349.271 361.956 350.194 359.896C351.141 357.813 351.615 355.268 351.615 352.261V300.273ZM417.843 318.455C417.417 314.856 415.689 312.062 412.659 310.074C409.628 308.085 405.911 307.091 401.508 307.091C398.288 307.091 395.471 307.612 393.056 308.653C390.665 309.695 388.795 311.127 387.445 312.95C386.12 314.773 385.457 316.845 385.457 319.165C385.457 321.106 385.919 322.775 386.842 324.172C387.789 325.545 388.996 326.693 390.464 327.616C391.932 328.516 393.471 329.262 395.08 329.854C396.69 330.422 398.17 330.884 399.519 331.239L406.906 333.227C408.8 333.724 410.907 334.411 413.227 335.287C415.57 336.163 417.808 337.358 419.938 338.874C422.093 340.365 423.868 342.283 425.265 344.626C426.662 346.97 427.36 349.847 427.36 353.256C427.36 357.186 426.33 360.737 424.271 363.909C422.235 367.081 419.252 369.603 415.322 371.473C411.416 373.343 406.669 374.278 401.082 374.278C395.874 374.278 391.364 373.438 387.552 371.757C383.764 370.076 380.781 367.732 378.603 364.726C376.449 361.719 375.23 358.227 374.945 354.25H384.036C384.273 356.996 385.196 359.269 386.806 361.068C388.44 362.844 390.499 364.17 392.985 365.045C395.495 365.898 398.194 366.324 401.082 366.324C404.444 366.324 407.462 365.779 410.137 364.69C412.812 363.578 414.931 362.039 416.494 360.074C418.056 358.085 418.838 355.765 418.838 353.114C418.838 350.699 418.163 348.734 416.813 347.219C415.464 345.704 413.688 344.473 411.487 343.526C409.285 342.579 406.906 341.75 404.349 341.04L395.4 338.483C389.718 336.849 385.22 334.518 381.906 331.487C378.591 328.457 376.934 324.491 376.934 319.591C376.934 315.519 378.035 311.968 380.237 308.938C382.462 305.884 385.445 303.516 389.186 301.835C392.95 300.131 397.152 299.278 401.792 299.278C406.48 299.278 410.646 300.119 414.292 301.8C417.938 303.457 420.826 305.73 422.957 308.618C425.111 311.506 426.248 314.785 426.366 318.455H417.843Z" fill="black"/>
<path d="M607.615 300.273H616.421V352.261C616.421 356.902 615.569 360.843 613.865 364.087C612.16 367.33 609.757 369.792 606.656 371.473C603.554 373.154 599.897 373.994 595.683 373.994C591.705 373.994 588.166 373.272 585.065 371.828C581.963 370.36 579.525 368.277 577.749 365.578C575.974 362.879 575.086 359.671 575.086 355.955H583.751C583.751 358.014 584.26 359.813 585.278 361.352C586.32 362.867 587.74 364.051 589.539 364.903C591.338 365.756 593.386 366.182 595.683 366.182C598.216 366.182 600.37 365.649 602.146 364.584C603.921 363.518 605.271 361.956 606.194 359.896C607.141 357.813 607.615 355.268 607.615 352.261V300.273ZM673.843 318.455C673.417 314.856 671.689 312.062 668.659 310.074C665.628 308.085 661.911 307.091 657.508 307.091C654.288 307.091 651.471 307.612 649.056 308.653C646.665 309.695 644.795 311.127 643.445 312.95C642.12 314.773 641.457 316.845 641.457 319.165C641.457 321.106 641.919 322.775 642.842 324.172C643.789 325.545 644.996 326.693 646.464 327.616C647.932 328.516 649.471 329.262 651.08 329.854C652.69 330.422 654.17 330.884 655.519 331.239L662.906 333.227C664.8 333.724 666.907 334.411 669.227 335.287C671.57 336.163 673.808 337.358 675.938 338.874C678.093 340.365 679.868 342.283 681.265 344.626C682.662 346.97 683.36 349.847 683.36 353.256C683.36 357.186 682.33 360.737 680.271 363.909C678.235 367.081 675.252 369.603 671.322 371.473C667.416 373.343 662.669 374.278 657.082 374.278C651.874 374.278 647.364 373.438 643.552 371.757C639.764 370.076 636.781 367.732 634.603 364.726C632.449 361.719 631.23 358.227 630.945 354.25H640.036C640.273 356.996 641.196 359.269 642.806 361.068C644.44 362.844 646.499 364.17 648.985 365.045C651.495 365.898 654.194 366.324 657.082 366.324C660.444 366.324 663.462 365.779 666.137 364.69C668.812 363.578 670.931 362.039 672.494 360.074C674.056 358.085 674.838 355.765 674.838 353.114C674.838 350.699 674.163 348.734 672.813 347.219C671.464 345.704 669.688 344.473 667.487 343.526C665.285 342.579 662.906 341.75 660.349 341.04L651.4 338.483C645.718 336.849 641.22 334.518 637.906 331.487C634.591 328.457 632.934 324.491 632.934 319.591C632.934 315.519 634.035 311.968 636.237 308.938C638.462 305.884 641.445 303.516 645.186 301.835C648.95 300.131 653.152 299.278 657.792 299.278C662.48 299.278 666.646 300.119 670.292 301.8C673.938 303.457 676.826 305.73 678.957 308.618C681.111 311.506 682.248 314.785 682.366 318.455H673.843Z" fill="black"/>
<path d="M863.615 300.273H872.421V352.261C872.421 356.902 871.569 360.843 869.865 364.087C868.16 367.33 865.757 369.792 862.656 371.473C859.554 373.154 855.897 373.994 851.683 373.994C847.705 373.994 844.166 373.272 841.065 371.828C837.963 370.36 835.525 368.277 833.749 365.578C831.974 362.879 831.086 359.671 831.086 355.955H839.751C839.751 358.014 840.26 359.813 841.278 361.352C842.32 362.867 843.74 364.051 845.539 364.903C847.338 365.756 849.386 366.182 851.683 366.182C854.216 366.182 856.37 365.649 858.146 364.584C859.921 363.518 861.271 361.956 862.194 359.896C863.141 357.813 863.615 355.268 863.615 352.261V300.273ZM929.843 318.455C929.417 314.856 927.689 312.062 924.659 310.074C921.628 308.085 917.911 307.091 913.508 307.091C910.288 307.091 907.471 307.612 905.056 308.653C902.665 309.695 900.795 311.127 899.445 312.95C898.12 314.773 897.457 316.845 897.457 319.165C897.457 321.106 897.919 322.775 898.842 324.172C899.789 325.545 900.996 326.693 902.464 327.616C903.932 328.516 905.471 329.262 907.08 329.854C908.69 330.422 910.17 330.884 911.519 331.239L918.906 333.227C920.8 333.724 922.907 334.411 925.227 335.287C927.57 336.163 929.808 337.358 931.938 338.874C934.093 340.365 935.868 342.283 937.265 344.626C938.662 346.97 939.36 349.847 939.36 353.256C939.36 357.186 938.33 360.737 936.271 363.909C934.235 367.081 931.252 369.603 927.322 371.473C923.416 373.343 918.669 374.278 913.082 374.278C907.874 374.278 903.364 373.438 899.552 371.757C895.764 370.076 892.781 367.732 890.603 364.726C888.449 361.719 887.23 358.227 886.945 354.25H896.036C896.273 356.996 897.196 359.269 898.806 361.068C900.44 362.844 902.499 364.17 904.985 365.045C907.495 365.898 910.194 366.324 913.082 366.324C916.444 366.324 919.462 365.779 922.137 364.69C924.812 363.578 926.931 362.039 928.494 360.074C930.056 358.085 930.838 355.765 930.838 353.114C930.838 350.699 930.163 348.734 928.813 347.219C927.464 345.704 925.688 344.473 923.487 343.526C921.285 342.579 918.906 341.75 916.349 341.04L907.4 338.483C901.718 336.849 897.22 334.518 893.906 331.487C890.591 328.457 888.934 324.491 888.934 319.591C888.934 315.519 890.035 311.968 892.237 308.938C894.462 305.884 897.445 303.516 901.186 301.835C904.95 300.131 909.152 299.278 913.792 299.278C918.48 299.278 922.646 300.119 926.292 301.8C929.938 303.457 932.826 305.73 934.957 308.618C937.111 311.506 938.248 314.785 938.366 318.455H929.843Z" fill="black"/>
<path d="M1119.61 300.273H1128.42V352.261C1128.42 356.902 1127.57 360.843 1125.86 364.087C1124.16 367.33 1121.76 369.792 1118.66 371.473C1115.55 373.154 1111.9 373.994 1107.68 373.994C1103.71 373.994 1100.17 373.272 1097.06 371.828C1093.96 370.36 1091.53 368.277 1089.75 365.578C1087.97 362.879 1087.09 359.671 1087.09 355.955H1095.75C1095.75 358.014 1096.26 359.813 1097.28 361.352C1098.32 362.867 1099.74 364.051 1101.54 364.903C1103.34 365.756 1105.39 366.182 1107.68 366.182C1110.22 366.182 1112.37 365.649 1114.15 364.584C1115.92 363.518 1117.27 361.956 1118.19 359.896C1119.14 357.813 1119.61 355.268 1119.61 352.261V300.273ZM1185.84 318.455C1185.42 314.856 1183.69 312.062 1180.66 310.074C1177.63 308.085 1173.91 307.091 1169.51 307.091C1166.29 307.091 1163.47 307.612 1161.06 308.653C1158.67 309.695 1156.79 311.127 1155.45 312.95C1154.12 314.773 1153.46 316.845 1153.46 319.165C1153.46 321.106 1153.92 322.775 1154.84 324.172C1155.79 325.545 1157 326.693 1158.46 327.616C1159.93 328.516 1161.47 329.262 1163.08 329.854C1164.69 330.422 1166.17 330.884 1167.52 331.239L1174.91 333.227C1176.8 333.724 1178.91 334.411 1181.23 335.287C1183.57 336.163 1185.81 337.358 1187.94 338.874C1190.09 340.365 1191.87 342.283 1193.27 344.626C1194.66 346.97 1195.36 349.847 1195.36 353.256C1195.36 357.186 1194.33 360.737 1192.27 363.909C1190.23 367.081 1187.25 369.603 1183.32 371.473C1179.42 373.343 1174.67 374.278 1169.08 374.278C1163.87 374.278 1159.36 373.438 1155.55 371.757C1151.76 370.076 1148.78 367.732 1146.6 364.726C1144.45 361.719 1143.23 358.227 1142.95 354.25H1152.04C1152.27 356.996 1153.2 359.269 1154.81 361.068C1156.44 362.844 1158.5 364.17 1160.99 365.045C1163.49 365.898 1166.19 366.324 1169.08 366.324C1172.44 366.324 1175.46 365.779 1178.14 364.69C1180.81 363.578 1182.93 362.039 1184.49 360.074C1186.06 358.085 1186.84 355.765 1186.84 353.114C1186.84 350.699 1186.16 348.734 1184.81 347.219C1183.46 345.704 1181.69 344.473 1179.49 343.526C1177.28 342.579 1174.91 341.75 1172.35 341.04L1163.4 338.483C1157.72 336.849 1153.22 334.518 1149.91 331.487C1146.59 328.457 1144.93 324.491 1144.93 319.591C1144.93 315.519 1146.03 311.968 1148.24 308.938C1150.46 305.884 1153.45 303.516 1157.19 301.835C1160.95 300.131 1165.15 299.278 1169.79 299.278C1174.48 299.278 1178.65 300.119 1182.29 301.8C1185.94 303.457 1188.83 305.73 1190.96 308.618C1193.11 311.506 1194.25 314.785 1194.37 318.455H1185.84Z" fill="black"/>
<path d="M95.6145 746.273H104.421V798.261C104.421 802.902 103.569 806.843 101.865 810.087C100.16 813.33 97.757 815.792 94.6557 817.473C91.5544 819.154 87.8967 819.994 83.6827 819.994C79.7054 819.994 76.1661 819.272 73.0648 817.828C69.9635 816.36 67.525 814.277 65.7495 811.578C63.9739 808.879 63.0861 805.671 63.0861 801.955H71.7509C71.7509 804.014 72.2599 805.813 73.2779 807.352C74.3195 808.867 75.74 810.051 77.5392 810.903C79.3385 811.756 81.3863 812.182 83.6827 812.182C86.2158 812.182 88.3702 811.649 90.1458 810.584C91.9213 809.518 93.2708 807.956 94.1941 805.896C95.141 803.813 95.6145 801.268 95.6145 798.261V746.273ZM161.843 764.455C161.417 760.856 159.689 758.062 156.659 756.074C153.628 754.085 149.911 753.091 145.508 753.091C142.288 753.091 139.471 753.612 137.056 754.653C134.665 755.695 132.795 757.127 131.445 758.95C130.12 760.773 129.457 762.845 129.457 765.165C129.457 767.106 129.919 768.775 130.842 770.172C131.789 771.545 132.996 772.693 134.464 773.616C135.932 774.516 137.471 775.262 139.08 775.854C140.69 776.422 142.17 776.884 143.519 777.239L150.906 779.227C152.8 779.724 154.907 780.411 157.227 781.287C159.57 782.163 161.808 783.358 163.938 784.874C166.093 786.365 167.868 788.283 169.265 790.626C170.662 792.97 171.36 795.847 171.36 799.256C171.36 803.186 170.33 806.737 168.271 809.909C166.235 813.081 163.252 815.603 159.322 817.473C155.416 819.343 150.669 820.278 145.082 820.278C139.874 820.278 135.364 819.438 131.552 817.757C127.764 816.076 124.781 813.732 122.603 810.726C120.449 807.719 119.23 804.227 118.945 800.25H128.036C128.273 802.996 129.196 805.269 130.806 807.068C132.44 808.844 134.499 810.17 136.985 811.045C139.495 811.898 142.194 812.324 145.082 812.324C148.444 812.324 151.462 811.779 154.137 810.69C156.812 809.578 158.931 808.039 160.494 806.074C162.056 804.085 162.838 801.765 162.838 799.114C162.838 796.699 162.163 794.734 160.813 793.219C159.464 791.704 157.688 790.473 155.487 789.526C153.285 788.579 150.906 787.75 148.349 787.04L139.4 784.483C133.718 782.849 129.22 780.518 125.906 777.487C122.591 774.457 120.934 770.491 120.934 765.591C120.934 761.519 122.035 757.968 124.237 754.938C126.462 751.884 129.445 749.516 133.186 747.835C136.95 746.131 141.152 745.278 145.792 745.278C150.48 745.278 154.646 746.119 158.292 747.8C161.938 749.457 164.826 751.73 166.957 754.618C169.111 757.506 170.248 760.785 170.366 764.455H161.843Z" fill="black"/>
<path d="M351.615 746.273H360.421V798.261C360.421 802.902 359.569 806.843 357.865 810.087C356.16 813.33 353.757 815.792 350.656 817.473C347.554 819.154 343.897 819.994 339.683 819.994C335.705 819.994 332.166 819.272 329.065 817.828C325.963 816.36 323.525 814.277 321.749 811.578C319.974 808.879 319.086 805.671 319.086 801.955H327.751C327.751 804.014 328.26 805.813 329.278 807.352C330.32 808.867 331.74 810.051 333.539 810.903C335.338 811.756 337.386 812.182 339.683 812.182C342.216 812.182 344.37 811.649 346.146 810.584C347.921 809.518 349.271 807.956 350.194 805.896C351.141 803.813 351.615 801.268 351.615 798.261V746.273ZM417.843 764.455C417.417 760.856 415.689 758.062 412.659 756.074C409.628 754.085 405.911 753.091 401.508 753.091C398.288 753.091 395.471 753.612 393.056 754.653C390.665 755.695 388.795 757.127 387.445 758.95C386.12 760.773 385.457 762.845 385.457 765.165C385.457 767.106 385.919 768.775 386.842 770.172C387.789 771.545 388.996 772.693 390.464 773.616C391.932 774.516 393.471 775.262 395.08 775.854C396.69 776.422 398.17 776.884 399.519 777.239L406.906 779.227C408.8 779.724 410.907 780.411 413.227 781.287C415.57 782.163 417.808 783.358 419.938 784.874C422.093 786.365 423.868 788.283 425.265 790.626C426.662 792.97 427.36 795.847 427.36 799.256C427.36 803.186 426.33 806.737 424.271 809.909C422.235 813.081 419.252 815.603 415.322 817.473C411.416 819.343 406.669 820.278 401.082 820.278C395.874 820.278 391.364 819.438 387.552 817.757C383.764 816.076 380.781 813.732 378.603 810.726C376.449 807.719 375.23 804.227 374.945 800.25H384.036C384.273 802.996 385.196 805.269 386.806 807.068C388.44 808.844 390.499 810.17 392.985 811.045C395.495 811.898 398.194 812.324 401.082 812.324C404.444 812.324 407.462 811.779 410.137 810.69C412.812 809.578 414.931 808.039 416.494 806.074C418.056 804.085 418.838 801.765 418.838 799.114C418.838 796.699 418.163 794.734 416.813 793.219C415.464 791.704 413.688 790.473 411.487 789.526C409.285 788.579 406.906 787.75 404.349 787.04L395.4 784.483C389.718 782.849 385.22 780.518 381.906 777.487C378.591 774.457 376.934 770.491 376.934 765.591C376.934 761.519 378.035 757.968 380.237 754.938C382.462 751.884 385.445 749.516 389.186 747.835C392.95 746.131 397.152 745.278 401.792 745.278C406.48 745.278 410.646 746.119 414.292 747.8C417.938 749.457 420.826 751.73 422.957 754.618C425.111 757.506 426.248 760.785 426.366 764.455H417.843Z" fill="black"/>
<path d="M607.615 746.273H616.421V798.261C616.421 802.902 615.569 806.843 613.865 810.087C612.16 813.33 609.757 815.792 606.656 817.473C603.554 819.154 599.897 819.994 595.683 819.994C591.705 819.994 588.166 819.272 585.065 817.828C581.963 816.36 579.525 814.277 577.749 811.578C575.974 808.879 575.086 805.671 575.086 801.955H583.751C583.751 804.014 584.26 805.813 585.278 807.352C586.32 808.867 587.74 810.051 589.539 810.903C591.338 811.756 593.386 812.182 595.683 812.182C598.216 812.182 600.37 811.649 602.146 810.584C603.921 809.518 605.271 807.956 606.194 805.896C607.141 803.813 607.615 801.268 607.615 798.261V746.273ZM673.843 764.455C673.417 760.856 671.689 758.062 668.659 756.074C665.628 754.085 661.911 753.091 657.508 753.091C654.288 753.091 651.471 753.612 649.056 754.653C646.665 755.695 644.795 757.127 643.445 758.95C642.12 760.773 641.457 762.845 641.457 765.165C641.457 767.106 641.919 768.775 642.842 770.172C643.789 771.545 644.996 772.693 646.464 773.616C647.932 774.516 649.471 775.262 651.08 775.854C652.69 776.422 654.17 776.884 655.519 777.239L662.906 779.227C664.8 779.724 666.907 780.411 669.227 781.287C671.57 782.163 673.808 783.358 675.938 784.874C678.093 786.365 679.868 788.283 681.265 790.626C682.662 792.97 683.36 795.847 683.36 799.256C683.36 803.186 682.33 806.737 680.271 809.909C678.235 813.081 675.252 815.603 671.322 817.473C667.416 819.343 662.669 820.278 657.082 820.278C651.874 820.278 647.364 819.438 643.552 817.757C639.764 816.076 636.781 813.732 634.603 810.726C632.449 807.719 631.23 804.227 630.945 800.25H640.036C640.273 802.996 641.196 805.269 642.806 807.068C644.44 808.844 646.499 810.17 648.985 811.045C651.495 811.898 654.194 812.324 657.082 812.324C660.444 812.324 663.462 811.779 666.137 810.69C668.812 809.578 670.931 808.039 672.494 806.074C674.056 804.085 674.838 801.765 674.838 799.114C674.838 796.699 674.163 794.734 672.813 793.219C671.464 791.704 669.688 790.473 667.487 789.526C665.285 788.579 662.906 787.75 660.349 787.04L651.4 784.483C645.718 782.849 641.22 780.518 637.906 777.487C634.591 774.457 632.934 770.491 632.934 765.591C632.934 761.519 634.035 757.968 636.237 754.938C638.462 751.884 641.445 749.516 645.186 747.835C648.95 746.131 653.152 745.278 657.792 745.278C662.48 745.278 666.646 746.119 670.292 747.8C673.938 749.457 676.826 751.73 678.957 754.618C681.111 757.506 682.248 760.785 682.366 764.455H673.843Z" fill="black"/>
<path d="M863.615 746.273H872.421V798.261C872.421 802.902 871.569 806.843 869.865 810.087C868.16 813.33 865.757 815.792 862.656 817.473C859.554 819.154 855.897 819.994 851.683 819.994C847.705 819.994 844.166 819.272 841.065 817.828C837.963 816.36 835.525 814.277 833.749 811.578C831.974 808.879 831.086 805.671 831.086 801.955H839.751C839.751 804.014 840.26 805.813 841.278 807.352C842.32 808.867 843.74 810.051 845.539 810.903C847.338 811.756 849.386 812.182 851.683 812.182C854.216 812.182 856.37 811.649 858.146 810.584C859.921 809.518 861.271 807.956 862.194 805.896C863.141 803.813 863.615 801.268 863.615 798.261V746.273ZM929.843 764.455C929.417 760.856 927.689 758.062 924.659 756.074C921.628 754.085 917.911 753.091 913.508 753.091C910.288 753.091 907.471 753.612 905.056 754.653C902.665 755.695 900.795 757.127 899.445 758.95C898.12 760.773 897.457 762.845 897.457 765.165C897.457 767.106 897.919 768.775 898.842 770.172C899.789 771.545 900.996 772.693 902.464 773.616C903.932 774.516 905.471 775.262 907.08 775.854C908.69 776.422 910.17 776.884 911.519 777.239L918.906 779.227C920.8 779.724 922.907 780.411 925.227 781.287C927.57 782.163 929.808 783.358 931.938 784.874C934.093 786.365 935.868 788.283 937.265 790.626C938.662 792.97 939.36 795.847 939.36 799.256C939.36 803.186 938.33 806.737 936.271 809.909C934.235 813.081 931.252 815.603 927.322 817.473C923.416 819.343 918.669 820.278 913.082 820.278C907.874 820.278 903.364 819.438 899.552 817.757C895.764 816.076 892.781 813.732 890.603 810.726C888.449 807.719 887.23 804.227 886.945 800.25H896.036C896.273 802.996 897.196 805.269 898.806 807.068C900.44 808.844 902.499 810.17 904.985 811.045C907.495 811.898 910.194 812.324 913.082 812.324C916.444 812.324 919.462 811.779 922.137 810.69C924.812 809.578 926.931 808.039 928.494 806.074C930.056 804.085 930.838 801.765 930.838 799.114C930.838 796.699 930.163 794.734 928.813 793.219C927.464 791.704 925.688 790.473 923.487 789.526C921.285 788.579 918.906 787.75 916.349 787.04L907.4 784.483C901.718 782.849 897.22 780.518 893.906 777.487C890.591 774.457 888.934 770.491 888.934 765.591C888.934 761.519 890.035 757.968 892.237 754.938C894.462 751.884 897.445 749.516 901.186 747.835C904.95 746.131 909.152 745.278 913.792 745.278C918.48 745.278 922.646 746.119 926.292 747.8C929.938 749.457 932.826 751.73 934.957 754.618C937.111 757.506 938.248 760.785 938.366 764.455H929.843Z" fill="black"/>
<path d="M1119.61 746.273H1128.42V798.261C1128.42 802.902 1127.57 806.843 1125.86 810.087C1124.16 813.33 1121.76 815.792 1118.66 817.473C1115.55 819.154 1111.9 819.994 1107.68 819.994C1103.71 819.994 1100.17 819.272 1097.06 817.828C1093.96 816.36 1091.53 814.277 1089.75 811.578C1087.97 808.879 1087.09 805.671 1087.09 801.955H1095.75C1095.75 804.014 1096.26 805.813 1097.28 807.352C1098.32 808.867 1099.74 810.051 1101.54 810.903C1103.34 811.756 1105.39 812.182 1107.68 812.182C1110.22 812.182 1112.37 811.649 1114.15 810.584C1115.92 809.518 1117.27 807.956 1118.19 805.896C1119.14 803.813 1119.61 801.268 1119.61 798.261V746.273ZM1185.84 764.455C1185.42 760.856 1183.69 758.062 1180.66 756.074C1177.63 754.085 1173.91 753.091 1169.51 753.091C1166.29 753.091 1163.47 753.612 1161.06 754.653C1158.67 755.695 1156.79 757.127 1155.45 758.95C1154.12 760.773 1153.46 762.845 1153.46 765.165C1153.46 767.106 1153.92 768.775 1154.84 770.172C1155.79 771.545 1157 772.693 1158.46 773.616C1159.93 774.516 1161.47 775.262 1163.08 775.854C1164.69 776.422 1166.17 776.884 1167.52 777.239L1174.91 779.227C1176.8 779.724 1178.91 780.411 1181.23 781.287C1183.57 782.163 1185.81 783.358 1187.94 784.874C1190.09 786.365 1191.87 788.283 1193.27 790.626C1194.66 792.97 1195.36 795.847 1195.36 799.256C1195.36 803.186 1194.33 806.737 1192.27 809.909C1190.23 813.081 1187.25 815.603 1183.32 817.473C1179.42 819.343 1174.67 820.278 1169.08 820.278C1163.87 820.278 1159.36 819.438 1155.55 817.757C1151.76 816.076 1148.78 813.732 1146.6 810.726C1144.45 807.719 1143.23 804.227 1142.95 800.25H1152.04C1152.27 802.996 1153.2 805.269 1154.81 807.068C1156.44 808.844 1158.5 810.17 1160.99 811.045C1163.49 811.898 1166.19 812.324 1169.08 812.324C1172.44 812.324 1175.46 811.779 1178.14 810.69C1180.81 809.578 1182.93 808.039 1184.49 806.074C1186.06 804.085 1186.84 801.765 1186.84 799.114C1186.84 796.699 1186.16 794.734 1184.81 793.219C1183.46 791.704 1181.69 790.473 1179.49 789.526C1177.28 788.579 1174.91 787.75 1172.35 787.04L1163.4 784.483C1157.72 782.849 1153.22 780.518 1149.91 777.487C1146.59 774.457 1144.93 770.491 1144.93 765.591C1144.93 761.519 1146.03 757.968 1148.24 754.938C1150.46 751.884 1153.45 749.516 1157.19 747.835C1160.95 746.131 1165.15 745.278 1169.79 745.278C1174.48 745.278 1178.65 746.119 1182.29 747.8C1185.94 749.457 1188.83 751.73 1190.96 754.618C1193.11 757.506 1194.25 760.785 1194.37 764.455H1185.84Z" fill="black"/>
<path d="M437.183 100H428.376C427.855 97.4669 426.944 95.2415 425.642 93.3239C424.363 91.4062 422.801 89.7964 420.954 88.4943C419.131 87.1686 417.107 86.1742 414.882 85.5114C412.657 84.8485 410.336 84.517 407.922 84.517C403.518 84.517 399.529 85.6297 395.954 87.8551C392.403 90.0805 389.574 93.3594 387.467 97.6918C385.384 102.024 384.342 107.339 384.342 113.636C384.342 119.934 385.384 125.249 387.467 129.581C389.574 133.913 392.403 137.192 395.954 139.418C399.529 141.643 403.518 142.756 407.922 142.756C410.336 142.756 412.657 142.424 414.882 141.761C417.107 141.098 419.131 140.116 420.954 138.814C422.801 137.488 424.363 135.866 425.642 133.949C426.944 132.008 427.855 129.782 428.376 127.273H437.183C436.52 130.99 435.313 134.316 433.561 137.251C431.809 140.187 429.631 142.685 427.027 144.744C424.423 146.78 421.499 148.331 418.256 149.396C415.036 150.462 411.591 150.994 407.922 150.994C401.719 150.994 396.203 149.479 391.373 146.449C386.544 143.419 382.744 139.11 379.974 133.523C377.204 127.936 375.819 121.307 375.819 113.636C375.819 105.966 377.204 99.3371 379.974 93.75C382.744 88.1629 386.544 83.8542 391.373 80.8239C396.203 77.7936 401.719 76.2784 407.922 76.2784C411.591 76.2784 415.036 76.8111 418.256 77.8764C421.499 78.9418 424.423 80.5043 427.027 82.5639C429.631 84.5999 431.809 87.0857 433.561 90.0213C435.313 92.9332 436.52 96.2595 437.183 100ZM491.187 95.4545C490.761 91.8561 489.033 89.0625 486.002 87.0739C482.972 85.0852 479.255 84.0909 474.852 84.0909C471.632 84.0909 468.815 84.6117 466.4 85.6534C464.009 86.6951 462.139 88.1274 460.789 89.9503C459.463 91.7732 458.801 93.8447 458.801 96.1648C458.801 98.1061 459.262 99.7751 460.186 101.172C461.133 102.545 462.34 103.693 463.808 104.616C465.276 105.516 466.814 106.262 468.424 106.854C470.034 107.422 471.514 107.884 472.863 108.239L480.249 110.227C482.143 110.724 484.25 111.411 486.57 112.287C488.914 113.163 491.151 114.358 493.282 115.874C495.436 117.365 497.212 119.283 498.609 121.626C500.006 123.97 500.704 126.847 500.704 130.256C500.704 134.186 499.674 137.737 497.615 140.909C495.579 144.081 492.596 146.603 488.666 148.473C484.759 150.343 480.013 151.278 474.426 151.278C469.217 151.278 464.707 150.438 460.896 148.757C457.108 147.076 454.125 144.732 451.947 141.726C449.793 138.719 448.573 135.227 448.289 131.25H457.38C457.617 133.996 458.54 136.269 460.15 138.068C461.784 139.844 463.843 141.17 466.329 142.045C468.838 142.898 471.537 143.324 474.426 143.324C477.787 143.324 480.806 142.779 483.481 141.69C486.156 140.578 488.275 139.039 489.838 137.074C491.4 135.085 492.181 132.765 492.181 130.114C492.181 127.699 491.507 125.734 490.157 124.219C488.808 122.704 487.032 121.473 484.83 120.526C482.629 119.579 480.249 118.75 477.693 118.04L468.744 115.483C463.062 113.849 458.564 111.518 455.249 108.487C451.935 105.457 450.278 101.491 450.278 96.5909C450.278 92.5189 451.379 88.9678 453.58 85.9375C455.806 82.8835 458.789 80.5161 462.529 78.8352C466.294 77.1307 470.496 76.2784 475.136 76.2784C479.823 76.2784 483.99 77.1188 487.636 78.7997C491.282 80.4569 494.17 82.7296 496.301 85.6179C498.455 88.5062 499.591 91.785 499.71 95.4545H491.187ZM554.956 95.4545C554.53 91.8561 552.802 89.0625 549.772 87.0739C546.742 85.0852 543.025 84.0909 538.621 84.0909C535.402 84.0909 532.584 84.6117 530.17 85.6534C527.778 86.6951 525.908 88.1274 524.559 89.9503C523.233 91.7732 522.57 93.8447 522.57 96.1648C522.57 98.1061 523.032 99.7751 523.955 101.172C524.902 102.545 526.109 103.693 527.577 104.616C529.045 105.516 530.584 106.262 532.194 106.854C533.804 107.422 535.283 107.884 536.633 108.239L544.019 110.227C545.913 110.724 548.02 111.411 550.34 112.287C552.684 113.163 554.921 114.358 557.052 115.874C559.206 117.365 560.982 119.283 562.378 121.626C563.775 123.97 564.474 126.847 564.474 130.256C564.474 134.186 563.444 137.737 561.384 140.909C559.348 144.081 556.365 146.603 552.435 148.473C548.529 150.343 543.782 151.278 538.195 151.278C532.987 151.278 528.477 150.438 524.665 148.757C520.877 147.076 517.894 144.732 515.716 141.726C513.562 138.719 512.343 135.227 512.059 131.25H521.15C521.386 133.996 522.31 136.269 523.92 138.068C525.553 139.844 527.613 141.17 530.099 142.045C532.608 142.898 535.307 143.324 538.195 143.324C541.557 143.324 544.575 142.779 547.251 141.69C549.926 140.578 552.045 139.039 553.607 137.074C555.17 135.085 555.951 132.765 555.951 130.114C555.951 127.699 555.276 125.734 553.927 124.219C552.577 122.704 550.802 121.473 548.6 120.526C546.398 119.579 544.019 118.75 541.462 118.04L532.513 115.483C526.831 113.849 522.333 111.518 519.019 108.487C515.705 105.457 514.047 101.491 514.047 96.5909C514.047 92.5189 515.148 88.9678 517.35 85.9375C519.575 82.8835 522.558 80.5161 526.299 78.8352C530.063 77.1307 534.265 76.2784 538.905 76.2784C543.593 76.2784 547.76 77.1188 551.405 78.7997C555.051 80.4569 557.939 82.7296 560.07 85.6179C562.224 88.5062 563.361 91.785 563.479 95.4545H554.956Z" fill="#A926F9"/>
<path d="M683.686 143V84.8182H690.732V110.727H721.754V84.8182H728.8V143H721.754V116.977H690.732V143H683.686ZM739.723 91.0682V84.8182H783.359V91.0682H765.064V143H758.018V91.0682H739.723ZM794.233 84.8182H802.642L822.415 133.114H823.097L842.869 84.8182H851.278V143H844.688V98.7955H844.119L825.938 143H819.574L801.392 98.7955H800.824V143H794.233V84.8182ZM865.405 143V84.8182H872.45V136.75H899.496V143H865.405Z" fill="#9CF926"/>
<path d="M1087.61 77.2727H1096.42V129.261C1096.42 133.902 1095.57 137.843 1093.86 141.087C1092.16 144.33 1089.76 146.792 1086.66 148.473C1083.55 150.154 1079.9 150.994 1075.68 150.994C1071.71 150.994 1068.17 150.272 1065.06 148.828C1061.96 147.36 1059.53 145.277 1057.75 142.578C1055.97 139.879 1055.09 136.671 1055.09 132.955H1063.75C1063.75 135.014 1064.26 136.813 1065.28 138.352C1066.32 139.867 1067.74 141.051 1069.54 141.903C1071.34 142.756 1073.39 143.182 1075.68 143.182C1078.22 143.182 1080.37 142.649 1082.15 141.584C1083.92 140.518 1085.27 138.956 1086.19 136.896C1087.14 134.813 1087.61 132.268 1087.61 129.261V77.2727ZM1153.84 95.4545C1153.42 91.8561 1151.69 89.0625 1148.66 87.0739C1145.63 85.0852 1141.91 84.0909 1137.51 84.0909C1134.29 84.0909 1131.47 84.6117 1129.06 85.6534C1126.67 86.6951 1124.79 88.1274 1123.45 89.9503C1122.12 91.7732 1121.46 93.8447 1121.46 96.1648C1121.46 98.1061 1121.92 99.7751 1122.84 101.172C1123.79 102.545 1125 103.693 1126.46 104.616C1127.93 105.516 1129.47 106.262 1131.08 106.854C1132.69 107.422 1134.17 107.884 1135.52 108.239L1142.91 110.227C1144.8 110.724 1146.91 111.411 1149.23 112.287C1151.57 113.163 1153.81 114.358 1155.94 115.874C1158.09 117.365 1159.87 119.283 1161.27 121.626C1162.66 123.97 1163.36 126.847 1163.36 130.256C1163.36 134.186 1162.33 137.737 1160.27 140.909C1158.23 144.081 1155.25 146.603 1151.32 148.473C1147.42 150.343 1142.67 151.278 1137.08 151.278C1131.87 151.278 1127.36 150.438 1123.55 148.757C1119.76 147.076 1116.78 144.732 1114.6 141.726C1112.45 138.719 1111.23 135.227 1110.95 131.25H1120.04C1120.27 133.996 1121.2 136.269 1122.81 138.068C1124.44 139.844 1126.5 141.17 1128.99 142.045C1131.49 142.898 1134.19 143.324 1137.08 143.324C1140.44 143.324 1143.46 142.779 1146.14 141.69C1148.81 140.578 1150.93 139.039 1152.49 137.074C1154.06 135.085 1154.84 132.765 1154.84 130.114C1154.84 127.699 1154.16 125.734 1152.81 124.219C1151.46 122.704 1149.69 121.473 1147.49 120.526C1145.28 119.579 1142.91 118.75 1140.35 118.04L1131.4 115.483C1125.72 113.849 1121.22 111.518 1117.91 108.487C1114.59 105.457 1112.93 101.491 1112.93 96.5909C1112.93 92.5189 1114.03 88.9678 1116.24 85.9375C1118.46 82.8835 1121.45 80.5161 1125.19 78.8352C1128.95 77.1307 1133.15 76.2784 1137.79 76.2784C1142.48 76.2784 1146.65 77.1188 1150.29 78.7997C1153.94 80.4569 1156.83 82.7296 1158.96 85.6179C1161.11 88.5062 1162.25 91.785 1162.37 95.4545H1153.84Z" fill="black"/>
<path d="M126.615 523.273H135.421V575.261C135.421 579.902 134.569 583.843 132.865 587.087C131.16 590.33 128.757 592.792 125.656 594.473C122.554 596.154 118.897 596.994 114.683 596.994C110.705 596.994 107.166 596.272 104.065 594.828C100.963 593.36 98.525 591.277 96.7495 588.578C94.9739 585.879 94.0861 582.671 94.0861 578.955H102.751C102.751 581.014 103.26 582.813 104.278 584.352C105.32 585.867 106.74 587.051 108.539 587.903C110.338 588.756 112.386 589.182 114.683 589.182C117.216 589.182 119.37 588.649 121.146 587.584C122.921 586.518 124.271 584.956 125.194 582.896C126.141 580.813 126.615 578.268 126.615 575.261V523.273ZM192.843 541.455C192.417 537.856 190.689 535.062 187.659 533.074C184.628 531.085 180.911 530.091 176.508 530.091C173.288 530.091 170.471 530.612 168.056 531.653C165.665 532.695 163.795 534.127 162.445 535.95C161.12 537.773 160.457 539.845 160.457 542.165C160.457 544.106 160.919 545.775 161.842 547.172C162.789 548.545 163.996 549.693 165.464 550.616C166.932 551.516 168.471 552.262 170.08 552.854C171.69 553.422 173.17 553.884 174.519 554.239L181.906 556.227C183.8 556.724 185.907 557.411 188.227 558.287C190.57 559.163 192.808 560.358 194.938 561.874C197.093 563.365 198.868 565.283 200.265 567.626C201.662 569.97 202.36 572.847 202.36 576.256C202.36 580.186 201.33 583.737 199.271 586.909C197.235 590.081 194.252 592.603 190.322 594.473C186.416 596.343 181.669 597.278 176.082 597.278C170.874 597.278 166.364 596.438 162.552 594.757C158.764 593.076 155.781 590.732 153.603 587.726C151.449 584.719 150.23 581.227 149.945 577.25H159.036C159.273 579.996 160.196 582.269 161.806 584.068C163.44 585.844 165.499 587.17 167.985 588.045C170.495 588.898 173.194 589.324 176.082 589.324C179.444 589.324 182.462 588.779 185.137 587.69C187.812 586.578 189.931 585.039 191.494 583.074C193.056 581.085 193.838 578.765 193.838 576.114C193.838 573.699 193.163 571.734 191.813 570.219C190.464 568.704 188.688 567.473 186.487 566.526C184.285 565.579 181.906 564.75 179.349 564.04L170.4 561.483C164.718 559.849 160.22 557.518 156.906 554.487C153.591 551.457 151.934 547.491 151.934 542.591C151.934 538.519 153.035 534.968 155.237 531.938C157.462 528.884 160.445 526.516 164.186 524.835C167.95 523.131 172.152 522.278 176.792 522.278C181.48 522.278 185.646 523.119 189.292 524.8C192.938 526.457 195.826 528.73 197.957 531.618C200.111 534.506 201.248 537.785 201.366 541.455H192.843Z" fill="black"/>
<path d="M447.615 523.273H456.421V575.261C456.421 579.902 455.569 583.843 453.865 587.087C452.16 590.33 449.757 592.792 446.656 594.473C443.554 596.154 439.897 596.994 435.683 596.994C431.705 596.994 428.166 596.272 425.065 594.828C421.963 593.36 419.525 591.277 417.749 588.578C415.974 585.879 415.086 582.671 415.086 578.955H423.751C423.751 581.014 424.26 582.813 425.278 584.352C426.32 585.867 427.74 587.051 429.539 587.903C431.338 588.756 433.386 589.182 435.683 589.182C438.216 589.182 440.37 588.649 442.146 587.584C443.921 586.518 445.271 584.956 446.194 582.896C447.141 580.813 447.615 578.268 447.615 575.261V523.273ZM513.843 541.455C513.417 537.856 511.689 535.062 508.659 533.074C505.628 531.085 501.911 530.091 497.508 530.091C494.288 530.091 491.471 530.612 489.056 531.653C486.665 532.695 484.795 534.127 483.445 535.95C482.12 537.773 481.457 539.845 481.457 542.165C481.457 544.106 481.919 545.775 482.842 547.172C483.789 548.545 484.996 549.693 486.464 550.616C487.932 551.516 489.471 552.262 491.08 552.854C492.69 553.422 494.17 553.884 495.519 554.239L502.906 556.227C504.8 556.724 506.907 557.411 509.227 558.287C511.57 559.163 513.808 560.358 515.938 561.874C518.093 563.365 519.868 565.283 521.265 567.626C522.662 569.97 523.36 572.847 523.36 576.256C523.36 580.186 522.33 583.737 520.271 586.909C518.235 590.081 515.252 592.603 511.322 594.473C507.416 596.343 502.669 597.278 497.082 597.278C491.874 597.278 487.364 596.438 483.552 594.757C479.764 593.076 476.781 590.732 474.603 587.726C472.449 584.719 471.23 581.227 470.945 577.25H480.036C480.273 579.996 481.196 582.269 482.806 584.068C484.44 585.844 486.499 587.17 488.985 588.045C491.495 588.898 494.194 589.324 497.082 589.324C500.444 589.324 503.462 588.779 506.137 587.69C508.812 586.578 510.931 585.039 512.494 583.074C514.056 581.085 514.838 578.765 514.838 576.114C514.838 573.699 514.163 571.734 512.813 570.219C511.464 568.704 509.688 567.473 507.487 566.526C505.285 565.579 502.906 564.75 500.349 564.04L491.4 561.483C485.718 559.849 481.22 557.518 477.906 554.487C474.591 551.457 472.934 547.491 472.934 542.591C472.934 538.519 474.035 534.968 476.237 531.938C478.462 528.884 481.445 526.516 485.186 524.835C488.95 523.131 493.152 522.278 497.792 522.278C502.48 522.278 506.646 523.119 510.292 524.8C513.938 526.457 516.826 528.73 518.957 531.618C521.111 534.506 522.248 537.785 522.366 541.455H513.843Z" fill="black"/>
<path d="M767.615 523.273H776.421V575.261C776.421 579.902 775.569 583.843 773.865 587.087C772.16 590.33 769.757 592.792 766.656 594.473C763.554 596.154 759.897 596.994 755.683 596.994C751.705 596.994 748.166 596.272 745.065 594.828C741.963 593.36 739.525 591.277 737.749 588.578C735.974 585.879 735.086 582.671 735.086 578.955H743.751C743.751 581.014 744.26 582.813 745.278 584.352C746.32 585.867 747.74 587.051 749.539 587.903C751.338 588.756 753.386 589.182 755.683 589.182C758.216 589.182 760.37 588.649 762.146 587.584C763.921 586.518 765.271 584.956 766.194 582.896C767.141 580.813 767.615 578.268 767.615 575.261V523.273ZM833.843 541.455C833.417 537.856 831.689 535.062 828.659 533.074C825.628 531.085 821.911 530.091 817.508 530.091C814.288 530.091 811.471 530.612 809.056 531.653C806.665 532.695 804.795 534.127 803.445 535.95C802.12 537.773 801.457 539.845 801.457 542.165C801.457 544.106 801.919 545.775 802.842 547.172C803.789 548.545 804.996 549.693 806.464 550.616C807.932 551.516 809.471 552.262 811.08 552.854C812.69 553.422 814.17 553.884 815.519 554.239L822.906 556.227C824.8 556.724 826.907 557.411 829.227 558.287C831.57 559.163 833.808 560.358 835.938 561.874C838.093 563.365 839.868 565.283 841.265 567.626C842.662 569.97 843.36 572.847 843.36 576.256C843.36 580.186 842.33 583.737 840.271 586.909C838.235 590.081 835.252 592.603 831.322 594.473C827.416 596.343 822.669 597.278 817.082 597.278C811.874 597.278 807.364 596.438 803.552 594.757C799.764 593.076 796.781 590.732 794.603 587.726C792.449 584.719 791.23 581.227 790.945 577.25H800.036C800.273 579.996 801.196 582.269 802.806 584.068C804.44 585.844 806.499 587.17 808.985 588.045C811.495 588.898 814.194 589.324 817.082 589.324C820.444 589.324 823.462 588.779 826.137 587.69C828.812 586.578 830.931 585.039 832.494 583.074C834.056 581.085 834.838 578.765 834.838 576.114C834.838 573.699 834.163 571.734 832.813 570.219C831.464 568.704 829.688 567.473 827.487 566.526C825.285 565.579 822.906 564.75 820.349 564.04L811.4 561.483C805.718 559.849 801.22 557.518 797.906 554.487C794.591 551.457 792.934 547.491 792.934 542.591C792.934 538.519 794.035 534.968 796.237 531.938C798.462 528.884 801.445 526.516 805.186 524.835C808.95 523.131 813.152 522.278 817.792 522.278C822.48 522.278 826.646 523.119 830.292 524.8C833.938 526.457 836.826 528.73 838.957 531.618C841.111 534.506 842.248 537.785 842.366 541.455H833.843Z" fill="black"/>
<path d="M1087.61 523.273H1096.42V575.261C1096.42 579.902 1095.57 583.843 1093.86 587.087C1092.16 590.33 1089.76 592.792 1086.66 594.473C1083.55 596.154 1079.9 596.994 1075.68 596.994C1071.71 596.994 1068.17 596.272 1065.06 594.828C1061.96 593.36 1059.53 591.277 1057.75 588.578C1055.97 585.879 1055.09 582.671 1055.09 578.955H1063.75C1063.75 581.014 1064.26 582.813 1065.28 584.352C1066.32 585.867 1067.74 587.051 1069.54 587.903C1071.34 588.756 1073.39 589.182 1075.68 589.182C1078.22 589.182 1080.37 588.649 1082.15 587.584C1083.92 586.518 1085.27 584.956 1086.19 582.896C1087.14 580.813 1087.61 578.268 1087.61 575.261V523.273ZM1153.84 541.455C1153.42 537.856 1151.69 535.062 1148.66 533.074C1145.63 531.085 1141.91 530.091 1137.51 530.091C1134.29 530.091 1131.47 530.612 1129.06 531.653C1126.67 532.695 1124.79 534.127 1123.45 535.95C1122.12 537.773 1121.46 539.845 1121.46 542.165C1121.46 544.106 1121.92 545.775 1122.84 547.172C1123.79 548.545 1125 549.693 1126.46 550.616C1127.93 551.516 1129.47 552.262 1131.08 552.854C1132.69 553.422 1134.17 553.884 1135.52 554.239L1142.91 556.227C1144.8 556.724 1146.91 557.411 1149.23 558.287C1151.57 559.163 1153.81 560.358 1155.94 561.874C1158.09 563.365 1159.87 565.283 1161.27 567.626C1162.66 569.97 1163.36 572.847 1163.36 576.256C1163.36 580.186 1162.33 583.737 1160.27 586.909C1158.23 590.081 1155.25 592.603 1151.32 594.473C1147.42 596.343 1142.67 597.278 1137.08 597.278C1131.87 597.278 1127.36 596.438 1123.55 594.757C1119.76 593.076 1116.78 590.732 1114.6 587.726C1112.45 584.719 1111.23 581.227 1110.95 577.25H1120.04C1120.27 579.996 1121.2 582.269 1122.81 584.068C1124.44 585.844 1126.5 587.17 1128.99 588.045C1131.49 588.898 1134.19 589.324 1137.08 589.324C1140.44 589.324 1143.46 588.779 1146.14 587.69C1148.81 586.578 1150.93 585.039 1152.49 583.074C1154.06 581.085 1154.84 578.765 1154.84 576.114C1154.84 573.699 1154.16 571.734 1152.81 570.219C1151.46 568.704 1149.69 567.473 1147.49 566.526C1145.28 565.579 1142.91 564.75 1140.35 564.04L1131.4 561.483C1125.72 559.849 1121.22 557.518 1117.91 554.487C1114.59 551.457 1112.93 547.491 1112.93 542.591C1112.93 538.519 1114.03 534.968 1116.24 531.938C1118.46 528.884 1121.45 526.516 1125.19 524.835C1128.95 523.131 1133.15 522.278 1137.79 522.278C1142.48 522.278 1146.65 523.119 1150.29 524.8C1153.94 526.457 1156.83 528.73 1158.96 531.618C1161.11 534.506 1162.25 537.785 1162.37 541.455H1153.84Z" fill="black"/>
</g>
<defs>
<clipPath id="clip0_1_48">
<rect width="1260" height="872" fill="white"/>
</clipPath>
</defs>
</svg>
